<svg enable-background="new 0 0 512 512" height="512" viewBox="0 0 512 512" width="512" xmlns="http://www.w3.org/2000/svg"><g id="_x31_0_Bank_Card"><g><path d="m505.688 164.482v230.677c0 20.416-16.551 36.967-36.967 36.967h-377.801c-20.416 0-36.967-16.551-36.967-36.967v-230.677c0-20.416 16.551-36.967 36.967-36.967h377.801c20.416 0 36.967 16.55 36.967 36.967z" fill="#475da9"/><path d="m458.047 116.841v230.677c0 20.416-16.551 36.967-36.967 36.967h-377.801c-20.416 0-36.967-16.551-36.967-36.967v-230.677c0-20.416 16.551-36.967 36.967-36.967h377.801c20.417 0 36.967 16.551 36.967 36.967z" fill="#f14f4a"/><path d="m458.047 116.813v230.709c0 20.39-16.543 36.934-36.998 36.934h-377.801c-19.685 0-35.715-15.39-36.805-34.755.705.128 1.475.128 2.18.128h287.006c70.597 0 127.793-57.196 127.793-127.729v-139.912c0-.704 0-1.475-.128-2.179 19.428 1.089 34.753 17.184 34.753 36.804z" opacity=".12"/><path d="m133.278 147.464v40.271c0 6.805-5.517 12.322-12.322 12.322h-55.162c-6.805 0-12.322-5.517-12.322-12.322v-40.271c0-6.805 5.517-12.322 12.322-12.322h55.161c6.806 0 12.323 5.517 12.323 12.322z" fill="#fdcf17"/><g fill="#e8f1f8"><circle cx="62.481" cy="259.527" r="9.009"/><circle cx="91.487" cy="259.527" r="9.009"/><circle cx="120.492" cy="259.527" r="9.009"/><circle cx="175.048" cy="259.527" r="9.009"/><circle cx="204.054" cy="259.527" r="9.009"/><circle cx="233.06" cy="259.527" r="9.009"/><circle cx="287.616" cy="259.527" r="9.009"/><circle cx="316.622" cy="259.527" r="9.009"/><circle cx="345.628" cy="259.527" r="9.009"/><path d="m410.888 316.864c0 6.822-5.531 12.353-12.353 12.353h-163.825c-6.822 0-12.353-5.531-12.353-12.353 0-6.822 5.531-12.353 12.353-12.353h163.825c6.822 0 12.353 5.531 12.353 12.353z"/><path d="m410.888 147.495c0 6.822-5.531 12.353-12.353 12.353h-37.721c-6.822 0-12.353-5.531-12.353-12.353 0-6.822 5.531-12.353 12.353-12.353h37.721c6.822 0 12.353 5.531 12.353 12.353z"/></g></g></g></svg>