<svg xmlns="http://www.w3.org/2000/svg" version="1.1" xmlns:xlink="http://www.w3.org/1999/xlink" width="512" height="512" x="0" y="0" viewBox="0 0 512 512" style="enable-background:new 0 0 512 512" xml:space="preserve" class=""><g><path d="M467.786 122.788h-5.344v-5.342c0-23.221-18.882-42.104-42.05-42.104H44.214c-23.221 0-42.103 18.883-42.103 42.104v229.663c0 23.22 18.882 42.103 42.103 42.103h5.342v5.342c0 23.22 18.883 42.103 42.103 42.103h376.127c23.22 0 42.103-18.883 42.103-42.103V164.891c0-23.221-18.883-42.103-42.103-42.103zm-15.922 224.321c0 17.402-14.122 31.524-31.471 31.524H44.214c-17.402 0-31.524-14.122-31.524-31.524V117.446c0-17.349 14.122-31.525 31.524-31.525h376.178c17.349 0 31.471 14.176 31.471 31.525v229.663z" fill="#ffffff" opacity="1" data-original="#000000" class=""></path><path d="M139.105 147.965v40.093c0 9.68-7.881 17.561-17.561 17.561H66.641c-9.68 0-17.561-7.881-17.561-17.561v-40.093c0-9.679 7.881-17.56 17.561-17.56h54.903c9.68 0 17.561 7.881 17.561 17.56zM63.308 245.236c-7.828 0-14.228 6.4-14.228 14.281s6.4 14.282 14.228 14.282c7.881 0 14.282-6.401 14.282-14.282s-6.401-14.281-14.282-14.281zm0 17.984c-2.009 0-3.649-1.692-3.649-3.703 0-2.009 1.64-3.702 3.649-3.702 2.064 0 3.704 1.693 3.704 3.702-.001 2.011-1.641 3.703-3.704 3.703zM92.187 245.236c-7.828 0-14.228 6.4-14.228 14.281s6.4 14.282 14.228 14.282c7.882 0 14.282-6.401 14.282-14.282.001-7.881-6.399-14.281-14.282-14.281zm0 17.984c-2.009 0-3.649-1.692-3.649-3.703 0-2.009 1.64-3.702 3.649-3.702 2.064 0 3.704 1.693 3.704 3.702 0 2.011-1.64 3.703-3.704 3.703zM121.068 245.236c-7.829 0-14.229 6.4-14.229 14.281s6.4 14.282 14.229 14.282c7.881 0 14.281-6.401 14.281-14.282s-6.399-14.281-14.281-14.281zm0 17.984c-2.011 0-3.651-1.692-3.651-3.703 0-2.009 1.64-3.702 3.651-3.702 2.062 0 3.702 1.693 3.702 3.702.001 2.011-1.639 3.703-3.702 3.703zM175.389 245.236c-7.828 0-14.228 6.4-14.228 14.281s6.4 14.282 14.228 14.282c7.882 0 14.282-6.401 14.282-14.282s-6.4-14.281-14.282-14.281zm0 17.984c-2.009 0-3.649-1.692-3.649-3.703 0-2.009 1.64-3.702 3.649-3.702 2.064 0 3.704 1.693 3.704 3.702 0 2.011-1.64 3.703-3.704 3.703zM204.27 245.236c-7.828 0-14.229 6.4-14.229 14.281s6.401 14.282 14.229 14.282c7.881 0 14.281-6.401 14.281-14.282s-6.4-14.281-14.281-14.281zm0 17.984c-2.011 0-3.651-1.692-3.651-3.703 0-2.009 1.64-3.702 3.651-3.702 2.062 0 3.702 1.693 3.702 3.702 0 2.011-1.64 3.703-3.702 3.703zM233.15 245.236c-7.828 0-14.228 6.4-14.228 14.281s6.4 14.282 14.228 14.282c7.881 0 14.281-6.401 14.281-14.282s-6.4-14.281-14.281-14.281zm0 17.984c-2.011 0-3.649-1.692-3.649-3.703 0-2.009 1.639-3.702 3.649-3.702 2.062 0 3.702 1.693 3.702 3.702 0 2.011-1.64 3.703-3.702 3.703zM287.471 245.236c-7.828 0-14.229 6.4-14.229 14.281s6.401 14.282 14.229 14.282c7.881 0 14.281-6.401 14.281-14.282s-6.399-14.281-14.281-14.281zm0 17.984c-2.011 0-3.651-1.692-3.651-3.703 0-2.009 1.64-3.702 3.651-3.702 2.062 0 3.702 1.693 3.702 3.702.001 2.011-1.639 3.703-3.702 3.703zM316.351 245.236c-7.828 0-14.228 6.4-14.228 14.281s6.4 14.282 14.228 14.282c7.881 0 14.281-6.401 14.281-14.282s-6.4-14.281-14.281-14.281zm0 17.984c-2.011 0-3.649-1.692-3.649-3.703 0-2.009 1.639-3.702 3.649-3.702 2.062 0 3.702 1.693 3.702 3.702 0 2.011-1.64 3.703-3.702 3.703zM345.231 245.236c-7.828 0-14.228 6.4-14.228 14.281s6.4 14.282 14.228 14.282c7.881 0 14.281-6.401 14.281-14.282s-6.4-14.281-14.281-14.281zm0 17.984c-2.009 0-3.649-1.692-3.649-3.703 0-2.009 1.64-3.702 3.649-3.702 2.062 0 3.702 1.693 3.702 3.702 0 2.011-1.64 3.703-3.702 3.703zM415.527 316.59c0 9.733-7.881 17.614-17.614 17.614H234.79c-9.68 0-17.561-7.881-17.561-17.614 0-9.679 7.881-17.561 17.561-17.561h163.123c9.732 0 17.614 7.881 17.614 17.561zM415.527 147.965c0 9.732-7.881 17.613-17.614 17.613h-37.554c-9.68 0-17.561-7.881-17.561-17.613 0-9.679 7.881-17.56 17.561-17.56h37.554c9.732 0 17.614 7.881 17.614 17.56z" fill="#ffffff" opacity="1" data-original="#000000" class=""></path></g></svg>