<svg xmlns="http://www.w3.org/2000/svg" version="1.1" xmlns:xlink="http://www.w3.org/1999/xlink" width="512" height="512" x="0" y="0" viewBox="0 0 16.933 16.933" style="enable-background:new 0 0 512 512" xml:space="preserve" class=""><g><path d="M2.117.53a1.05 1.05 0 0 0-1.059 1.058v.529h7.933v-.53c0-.412.179-.775.438-1.058zm8.648 4.427a.786.786 0 0 1 .12-.952l.753-.83V1.588A1.05 1.05 0 0 0 10.58.529a1.05 1.05 0 0 0-1.058 1.059v.792a.265.265 0 0 1-.266.266H1.588v6.88h1.335c.335 0 .625.215.734.515h1.114a1.5 1.5 0 0 0 .406-.14 6.6 6.6 0 0 0 .617-.352c.315-.2.59-.396.703-.478l.189-.431c1.236-2.713 3.081-2.982 4.08-3.683zm1.822-1.906L11.258 4.38a.245.245 0 0 0-.002.355l3.387 3.386a.246.246 0 0 0 .356 0l1.329-1.329a.246.246 0 0 0 0-.356L12.94 3.049a.248.248 0 0 0-.177-.075.252.252 0 0 0-.177.077zm-9.682.648h5.293c.146 0 .263.118.264.264a.265.265 0 0 1-.264.263H2.905a.265.265 0 0 1-.264-.263c.001-.146.119-.263.264-.264zm0 1.064h5.293a.265.265 0 0 1 0 .53H2.905a.265.265 0 0 1 0-.53zm11.652 3.913a.77.77 0 0 1-.288-.18L11.124 5.35c-1.163.877-2.778.924-3.955 3.502l-.002.002v.002l-.777 1.785a.522.522 0 0 0 .271.696c.27.118.531-.01.707-.299v-.002h.002c.002-.003.541-.924.857-1.395.078-.115.15-.271.307-.414.158-.142.398-.232.707-.232h.514l.292-.003c.234-.08.472-.215.638-.368.165-.154.246-.313.246-.44a.264.264 0 1 1 .53-.004c.001.326-.175.6-.4.815l2.196.002c.377.024.68.21.857.486zM2.907 5.821h3.966a.265.265 0 1 1 0 .529H2.907a.265.265 0 1 1 0-.53zm.938 1.058c.167 0 .333.041.482.127.202.117.34.253.42.475a.74.74 0 0 1 .871.193h.198a.264.264 0 1 1 0 .53H5.49a.265.265 0 0 1-.22-.118c-.112-.152-.193-.146-.239-.142-.081.007-.198.081-.273.168a.265.265 0 0 1-.463-.19c.015-.234-.09-.374-.232-.457-.15-.087-.356-.08-.55.05-.21.14-.33.324-.345.556a.264.264 0 0 1-.528-.035c.027-.407.26-.749.58-.963.19-.127.409-.194.624-.194zm.926 3.691H3.704v4.524a.768.768 0 0 1-.046.26l1.424.341a1.05 1.05 0 0 1-.06-.35v-1.322c0-.581.477-1.058 1.06-1.058.46 0 .848.3.993.713a1.05 1.05 0 0 1 1.499.331c.184-.157.421-.251.68-.251.316 0 .597.143.792.364a1.07 1.07 0 0 1 .82-.364h1.565c.297 0 .529-.232.529-.53a.522.522 0 0 0-.53-.529h-1.058a.265.265 0 0 1-.264-.264c0-.145.119-.263.264-.263h1.322c.298 0 .53-.232.53-.53a.523.523 0 0 0-.53-.529h-1.056a.265.265 0 1 1 0-.53h1.586c.297 0 .53-.23.53-.528a.523.523 0 0 0-.53-.53H9.24c-.22 0-.289.041-.351.098-.063.056-.123.165-.223.314a38.563 38.563 0 0 0-.842 1.37v.001l-.002.002c-.278.46-.842.746-1.375.512a1.06 1.06 0 0 1-.545-1.39l.185-.443c-.227.143-.46.28-.68.388s-.417.193-.637.193zm-3.99-.515a.244.244 0 0 0-.252.25v5.04c0 .145.108.265.252.265h2.142c.144 0 .252-.12.252-.264v-5.041a.245.245 0 0 0-.252-.25zm5.3 3.44a.522.522 0 0 0-.529.528v1.322c0 .298.231.53.53.53.297 0 .528-.232.528-.53v-1.322a.522.522 0 0 0-.529-.529zm1.588.528a.523.523 0 0 0-.53.53v1.322c0 .298.232.53.53.53.298 0 .53-.232.53-.53v-1.322a.522.522 0 0 0-.53-.53zm1.586.264a.522.522 0 0 0-.53.53v1.058c0 .298.232.53.53.53.297 0 .53-.232.53-.53v-1.059a.523.523 0 0 0-.53-.529zm1.588 0a.522.522 0 0 0-.53.53v.528c0 .298.232.53.53.53.297 0 .529-.232.529-.53v-.529a.522.522 0 0 0-.53-.529zm.915 0c.09.156.144.337.144.53v.528c.297 0 .529-.231.529-.529a.522.522 0 0 0-.53-.529z" paint-order="stroke fill markers" fill="#ffffff" opacity="1" data-original="#000000" class=""></path></g></svg>