<svg id="svg8" height="512" viewBox="0 0 16.933333 16.933334" width="512" xmlns="http://www.w3.org/2000/svg" xmlns:svg="http://www.w3.org/2000/svg"><g id="layer1"><path id="path5779" d="m10.054167.52916666c-.7328963 0-1.3229171.59002084-1.3229171 1.32291664v.2645834h-7.4083333v8.4666663h10.0541664v-8.7312497c0-.7328958-.590021-1.32291664-1.322916-1.32291664z" fill="#e4eff8"/><path id="path5781" d="m10.493416.60926514c0 5.21156806-5.9954994 8.38656806-9.1704994 8.38656806v1.5874998h10.0541664v-8.7312497c0-.5778684-.369232-1.06178173-.883667-1.24281816z" fill="#c4dcf0"/><path id="rect5783" d="m1.0451126 9.5250017h2.407694c.2858331 0 .5159443.2301111.5159443.5159443v4.788944c0 .285834-.2301112.515945-.5159443.515945h-2.407694c-.28583313 0-.51594429-.230111-.51594429-.515945v-4.788944c0-.2858332.23011116-.5159443.51594429-.5159443z" fill="#549ad4" paint-order="stroke fill markers"/><path id="path5786" d="m12.7 9.7895845-3.7191873-.2645849s-.616529-.2645837-.794176-.0000007c-.304861.454054-.849174 1.3835531-.849174 1.3835531-.227084.375406-.640423.583843-1.042344.407559-.401919-.176288-.584169-.641893-.408631-1.043965l.780719-1.7882441c1.270294-2.787109 3.3869593-3.080322 4.4452933-3.985984l3.439583 3.4395833-1.16981 1.5875c-.094475.0944752-.08503.2774613-.682273.2645833z" fill="#ffbd8d"/><path id="path5921" d="m13.89941 7.2848279c-1.175868 1.6213878-3.316077 1.97559-3.316077 1.97559v.3787883l2.116667.1503783c.597243.012877.598414-.2162508.682129-.2645833l1.169954-1.5875z" fill="#ffa465"/><path id="path5831" d="m9.9911457 8.6464852c-.165766.153633-.405057.289024-.632812.365235-.33469.111951-.166721.613905.167969.501953.297178-.09944.5910183-.262386.8242193-.478516.2332-.21613.501269-.496733.499093-.830078.000899-.07778-.0017-.263542-.0017-.263542s-.264583-.004-.352863-.00402c-.145412.00368-.260564.124079-.257812.269514.000824.126191-.08033.285821-.2460943.439454z" fill="#ffa465" font-variant-ligatures="normal" font-variant-position="normal" font-variant-caps="normal" font-variant-numeric="normal" font-variant-alternates="normal" font-feature-settings="normal" text-indent="0" text-align="start" text-decoration-line="none" text-decoration-style="solid" text-decoration-color="#000000" text-transform="none" text-orientation="mixed" white-space="normal" shape-padding="0" isolation="auto" mix-blend-mode="normal" solid-color="#000000" solid-opacity="1" vector-effect="none"/><path id="path5791" d="m6.3499999 8.9958329c-.5291667 0-1.5875 1.0583331-2.6458329 1.0583331v4.93825s1.0583329.353417 1.322916.353417h6.35c.439737 0 .79375-.354012.79375-.79375 0-.439737-.354013-.79375-.79375-.79375h.529167c.439737 0 .79375-.354012.79375-.79375 0-.439737-.354013-.79375-.79375-.79375h.264583c.439737 0 .79375-.354012.79375-.79375 0-.439737-.354013-.79375-.79375-.79375h.529167c.439737 0 .79375-.354012.79375-.7937501 0-.439737-.354013-.79375-.79375-.79375z" fill="#ffd1b5"/><path id="path5793" d="m12.458671 8.9958329c0 2.6458331-1.487383 5.5562501-5.314921 5.5562501h-3.439583v.440333c.440972.117806.4449205.211755 1.322916.353417h6.35c.439737 0 .79375-.354012.79375-.79375 0-.439737-.354013-.79375-.79375-.79375h.529167c.439737 0 .79375-.354012.79375-.79375 0-.439737-.354013-.79375-.79375-.79375h.264583c.439737 0 .79375-.354012.79375-.79375 0-.439737-.354013-.79375-.79375-.79375h.529167c.439737 0 .79375-.354012.79375-.7937501 0-.439737-.354013-.79375-.79375-.79375z" fill="#ffb98d"/><path id="rect5795" d="m-15.08125-6.6145835h1.322917c.439737 0 .79375.3540125.79375.79375s-.354013.79375-.79375.79375h-1.322917c-.439738 0-.79375-.3540125-.79375-.79375s.354012-.79375.79375-.79375z" fill="#ffbd8d" transform="matrix(0 -1 -1 0 0 0)" paint-order="stroke fill markers"/><path id="path5799" d="m6.0854161 13.758334v1.322916c0 .346362-.221009.636799-.529166.745691.08308.02936.171207.04806.264583.04806.439737 0 .79375-.354012.79375-.79375v-1.322916c0-.439738-.354013-.79375-.79375-.793751-.09338-.000001-.181507.0187-.264583.04806.308157.108891.529166.399328.529166.74569z" fill="#ffa465" paint-order="stroke fill markers"/><path id="rect5803" d="m-15.610413-8.2020845h1.322915c.439737 0 .79375.3540125.79375.79375s-.354013.7937501-.79375.7937501h-1.322915c-.439738 0-.79375-.3540126-.79375-.7937501s.354012-.79375.79375-.79375z" fill="#ffbd8d" transform="matrix(0 -1 -1 0 0 0)" paint-order="stroke fill markers"/><path id="path5927" d="m3.7041666 10.054167v4.768701l.4929931.19482c.022726-.05828.036174-.121067.036174-.187586v-4.789371c0-.02258-.00393-.04383-.00672-.065629-.1726433.048323-.3474096.079065-.5224479.079065z" fill="#ffb98d" paint-order="stroke fill markers"/><path id="path5805" d="m3.1749999 9.5249999v1.0583331c0 2.116667-.5291662 4.233333-2.1241162 4.233333h-.52171704v.01344c0 .285833.229898.515731.51573104.515731h2.4081212c.285833 0 .515731-.229898.515731-.515731v-4.789372c0-.2858331-.229898-.5157301-.515731-.5157301z" fill="#3588cb" paint-order="stroke fill markers"/><path id="rect5809" d="m-15.610417-9.7895851h1.058336c.439738 0 .79375.3540125.79375.7937499 0 .4397375-.354012.7937499-.79375.7937499h-1.058336c-.439738 0-.79375-.3540124-.79375-.7937499 0-.4397374.354012-.7937499.79375-.7937499z" fill="#ffbd8d" transform="matrix(0 -1 -1 0 0 0)" paint-order="stroke fill markers"/><path id="rect5811" d="m-15.08125-11.377083h.529167c.439737 0 .79375.354013.79375.79375 0 .439738-.354013.7937504-.79375.7937504h-.529167c-.439737 0-.79375-.3540124-.79375-.7937504 0-.439737.354013-.79375.79375-.79375z" fill="#ffbd8d" transform="matrix(0 -1 -1 0 0 0)" paint-order="stroke fill markers"/><path id="path5813" d="m10.847916 14.552084v.529166c0 .346362-.221009.636799-.529166.745691.08308.02936.171207.04806.264583.04806.439737 0 .79375-.354012.79375-.79375v-.529166c0-.439738-.354013-.79375-.79375-.793751-.09338-.000001-.181507.0187-.264583.04806.308157.108891.529166.399328.529166.74569z" fill="#ffa465" paint-order="stroke fill markers"/><path id="path5817" d="m7.1437491 13.541807c.308158.108892.529167.39933.529167.745691v1.322917c0 .346361-.221009.636799-.529167.745691.08308.02936.171208.04806.264584.04806.439737 0 .79375-.354013.79375-.79375v-1.322917c0-.439737-.354013-.79375-.79375-.793751-.09338-.000001-.181507.0187-.264584.04806z" fill="#ffa465" paint-order="stroke fill markers"/><path id="path5821" d="m9.7895831 15.610416c0 .439738-.354013.79375-.79375.79375-.09338 0-.181507-.0187-.264583-.04806.308157-.108892.529166-.399329.529166-.745691v-1.058332c0-.346362-.221009-.636799-.529166-.745691.08308-.02936.171207-.04806.264583-.04806.439737 0 .79375.354012.79375.793751z" fill="#ffa465" paint-order="stroke fill markers"/><path id="path5825" d="m6.4435444 8.9958329-.557072 1.2764081c-.175538.402072.0068.867576.408761 1.043864.40192.176284.81523-.03232 1.042313-.407727 0 0 .544183-.9293251.849044-1.3833781.177647-.264584.264816-.529167.794267-.529167z" fill="#ffbd8d"/><path id="path5829" d="m8.2578947 8.9958329c-.529451 0-.61662.264583-.794267.529167-.304862.454053-.849044 1.3833781-.849044 1.3833781-.0979.16185-.231619.289741-.382923.37207.02133.01178.04079.02567.06356.03566.40192.176284.81523-.03232 1.042313-.407727 0 0 .544183-.9293251.849044-1.3833781.177647-.264584.264816-.529167.794267-.529167z" fill="#ffa465"/><path id="rect5836" d="m4.8656433 10.419539h1.8785278c.2858331 0 .5159443.230112.5159443.515945v4.788944c0 .285833-.2301112.515944-.5159443.515944h-1.8785278c-.2858331 0-.5159443-.230111-.5159443-.515944v-4.788944c0-.285833.2301112-.515945.5159443-.515945z" fill="#549ad4" transform="matrix(.707 -.707 .707 .707 0 0)" paint-order="stroke fill markers"/><path id="path5838" d="m12.501388 2.4473949c-.131885 0-.263778.05035-.364836.151412l-.164331.164331 2.395978 2.395978c.732929.661717.975393 1.406441.4464 1.935199l-.784622.784274.164331.164331c.202115.202114.527557.202114.729671 0l1.328601-1.328085c.202115-.202114.202115-.527557 0-.729671l-3.386356-3.386357c-.101058-.101057-.232951-.151412-.364836-.151412z" fill="#3588cb" paint-order="stroke fill markers"/><path id="path5842" d="m2.1166666.52916666c-.7328954 0-1.32291618.59002084-1.32291618 1.32291664v.79375h7.93749938v-.79375c0-.7328958.5900208-1.32291664 1.3229162-1.32291664z" fill="#549ad4"/><path id="path5844" d="m8.5503823.52916666c-1.1420491 1.72445674-6.4337157 1.58750004-7.492049 1.58750004h-.26458331v.5291666h7.93749991v-.79375c0-.7328958.5900213-1.32291664 1.3229171-1.32291664z" fill="#3588cb"/><g fill="#549ad4" stroke-linecap="round" stroke-linejoin="round"><path id="path5911" d="m2.3947352 3.7052015c-.14618-.00053-.26512.11738-.26562.26355.00053.14618.11944.26413.26562.26355h5.54288c.14542-.00053.26356-.1158.26356-.26355s-.11814-.26305-.26356-.26355z" paint-order="stroke fill markers"/><path id="path5909" d="m2.3947352 4.7614715c-.14693-.00053-.2662.11919-.26562.26613.00053.14618.11944.26413.26562.26355h5.54288c.14542-.00053.26356-.11214.26356-.26355.00053-.15018-.11737-.26563-.26356-.26613z" paint-order="stroke fill markers"/><path id="path5905" d="m2.3962852 5.8203215c-.14694-.00052-.2662.11868-.26562.26562.00053.14618.11945.26413.26562.26355h4.21892c.14542-.00053.26305-.11814.26355-.26355.00053-.14617-.11737-.26511-.26355-.26562z" paint-order="stroke fill markers"/><path id="path5903" d="m3.3207852 6.8786615c-.21519-.00026-.43312.0671-.62322.19378-.32171.21431-.5542.55604-.58034.96274-.01.14627.10174.27226.24805.28112.14483.008.26917-.10126.27906-.24598.0149-.23135.13533-.4164.34572-.55656.19417-.12934.3988-.13598.54934-.0491.14133.0816.24706.22302.23202.45734-.014.25092.29704.37783.46302.18913.0755-.0865.19273-.15706.27338-.16794.0443-.006.13475-.0111.23823.14262.0493.0735.13212.11763.22066.11731h.32453c.14695.00053.2662-.11868.26562-.26562-.00053-.14617-.11944-.26413-.26562-.26355h-.19689c-.18058-.19973-.41508-.29157-.65681-.2558-.14632.0216-.20075.0548-.21188.0615-.0899-.21454-.23227-.36392-.42272-.47387-.14904-.086-.31477-.12692-.48215-.12712z" paint-order="stroke fill markers"/></g><path id="path5932" d="m5.4983723 7.7798868c-.2369764.1264629-.4752014.2439707-.7131346.3513998.048721.045681.113125.072077.181384.07183h.3245282c.1469498.0005293.2661967-.1186766.2656168-.2656167-.0002191-.0604557-.0241195-.1131999-.0583944-.1576131z" fill="#3588cb"/></g></svg>