<svg xmlns="http://www.w3.org/2000/svg" version="1.1" xmlns:xlink="http://www.w3.org/1999/xlink" width="512" height="512" x="0" y="0" viewBox="0 0 512 512" style="enable-background:new 0 0 512 512" xml:space="preserve" class=""><g><path d="M243.075 79.399c-.652 3.461.194 6.691 2.156 8.229a30.912 30.912 0 0 0 3.269 2.207v-18.43c-3.19 1.822-4.89 5.157-5.425 7.994zM263.5 112.534v25.852c4.514-2.589 7.21-7.163 7.942-11.514.414-2.462.994-10.529-7.942-14.338z" fill="#ffffff" opacity="1" data-original="#000000" class=""></path><path d="M256 0c-57.99 0-105 47.01-105 105 0 11.201 1.761 21.99 5.009 32.112a159.363 159.363 0 0 1 8.998 3.41l24.943 10.35c18.422-6.557 38.092-10.453 58.55-11.223v-32.997c-5.368-2.41-9.321-4.707-12.526-7.221-6.416-5.032-9.342-13.772-7.639-22.811 1.858-9.86 8.719-17.705 17.903-20.473.764-.23 1.516-.424 2.262-.602V50c0-4.143 3.358-7.5 7.5-7.5s7.5 3.357 7.5 7.5v5.098c8.752 1.652 14.724 6.374 16.197 9.25a7.5 7.5 0 0 1-12.342 8.336c-.409-.324-1.736-1.282-3.855-2.063V96.55c1.293.478 2.583.943 3.852 1.391 13.856 4.897 21.268 17.23 18.882 31.418-.68 4.048-2.255 8.116-4.628 11.798a196.125 196.125 0 0 1 40.444 9.716l24.946-10.35a160.032 160.032 0 0 1 8.995-3.409A104.936 104.936 0 0 0 361 105C361 47.01 313.99 0 256 0zM256 169.5c-92.36 0-167.5 75.141-167.5 167.5 0 82.22 59.486 127.5 167.5 127.5S423.5 419.22 423.5 337c0-92.359-75.14-167.5-167.5-167.5zM176 262c0-8.284 6.716-15 15-15s15 6.716 15 15-6.716 15-15 15-15-6.716-15-15zm80 150c-38.598 0-70-26.916-70-60s31.402-60 70-60 70 26.916 70 60-31.402 60-70 60zm65-135c-8.284 0-15-6.716-15-15s6.716-15 15-15 15 6.716 15 15-6.716 15-15 15z" fill="#ffffff" opacity="1" data-original="#000000" class=""></path><ellipse cx="256" cy="352" rx="40" ry="30" fill="#ffffff" opacity="1" data-original="#000000" class=""></ellipse><path d="M424.768 234.509c12.642-30.464 11.159-61.43 11.062-63.187-.42-7.635-6.517-13.731-14.151-14.152-1.755-.092-32.722-1.577-63.186 11.063a199.028 199.028 0 0 1 66.275 66.276zM153.509 168.232c-30.465-12.642-61.432-11.158-63.188-11.062-7.635.421-13.731 6.518-14.151 14.152-.097 1.756-1.581 32.723 11.062 63.187a199.028 199.028 0 0 1 66.277-66.277zM301.092 498.656C301.936 506.253 308.357 512 316 512h60c8.284 0 15-6.716 15-15v-36.256c-24.148 16.173-54.503 26.583-90.663 31.123zM121 497c0 8.284 6.716 15 15 15h60c7.643 0 14.064-5.747 14.908-13.344l.754-6.79c-36.16-4.539-66.514-14.95-90.663-31.123V497z" fill="#ffffff" opacity="1" data-original="#000000" class=""></path></g></svg>