<svg xmlns="http://www.w3.org/2000/svg" version="1.1" xmlns:xlink="http://www.w3.org/1999/xlink" width="512" height="512" x="0" y="0" viewBox="0 0 64 64" style="enable-background:new 0 0 512 512" xml:space="preserve" class=""><g><path d="M48 52.91c1.7-.29 3-1.27 3-2.41s-1.3-2.12-3-2.41v4.81zM43 43.5c0 1.14 1.3 2.12 3 2.41V41.1c-1.7.29-3 1.27-3 2.41z" fill="#ffffff" opacity="1" data-original="#000000" class=""></path><path d="M47 32c-8.27 0-15 6.73-15 15s6.73 15 15 15 15-6.73 15-15-6.73-15-15-15zm6 18.5c0 2.27-2.13 4.09-5 4.44V56c0 .55-.45 1-1 1s-1-.45-1-1v-1.06c-2.87-.35-5-2.17-5-4.44 0-.55.45-1 1-1s1 .45 1 1c0 1.14 1.3 2.12 3 2.41v-4.97c-2.87-.35-5-2.17-5-4.44s2.13-4.09 5-4.44v-1.07c0-.55.45-1 1-1s1 .45 1 1v1.07c2.87.35 5 2.17 5 4.44 0 .55-.45 1-1 1s-1-.45-1-1c0-1.14-1.3-2.12-3-2.41v4.97c2.87.35 5 2.17 5 4.44zM12 17.72c0-.55-.45-1-1-1s-1 .45-1 1c0 1.83 1.69 3.31 4 3.65V22c0 .55.45 1 1 1s1-.45 1-1v-.63c2.31-.34 4-1.82 4-3.65s-1.69-3.31-4-3.65v-3.4c1.21.26 2 .96 2 1.61 0 .55.45 1 1 1s1-.45 1-1c0-1.83-1.69-3.31-4-3.65V8c0-.55-.45-1-1-1s-1 .45-1 1v.63c-2.31.34-4 1.82-4 3.65s1.69 3.31 4 3.65v3.41c-1.21-.26-2-.96-2-1.61zm4-1.61c1.21.26 2 .96 2 1.61s-.79 1.35-2 1.61zm-4-3.83c0-.65.79-1.35 2-1.61v3.22c-1.21-.26-2-.96-2-1.61z" fill="#ffffff" opacity="1" data-original="#000000" class=""></path><path d="M7 60c-1.65 0-3-1.35-3-3V7c0-1.65 1.35-3 3-3h36c1.65 0 3 1.35 3 3v23.03a16.446 16.446 0 0 1 2 0V7c0-2.76-2.24-5-5-5H7C4.24 2 2 4.24 2 7v50c0 2.76 2.24 5 5 5h32.03c-1.06-.56-2.05-1.23-2.96-2z" fill="#ffffff" opacity="1" data-original="#000000" class=""></path><rect width="6" height="6" x="10" y="26" rx="1" fill="#ffffff" opacity="1" data-original="#000000" class=""></rect><rect width="6" height="8" x="18" y="24" rx="1" fill="#ffffff" opacity="1" data-original="#000000" class=""></rect><rect width="6" height="14" x="26" y="18" rx="1" fill="#ffffff" opacity="1" data-original="#000000" class=""></rect><rect width="6" height="22" x="34" y="10" rx="1" fill="#ffffff" opacity="1" data-original="#000000" class=""></rect><path d="M23 39H11c-.55 0-1 .45-1 1s.45 1 1 1h12c.55 0 1-.45 1-1s-.45-1-1-1zM23 45H11c-.55 0-1 .45-1 1s.45 1 1 1h12c.55 0 1-.45 1-1s-.45-1-1-1zM23 51H11c-.55 0-1 .45-1 1s.45 1 1 1h12c.55 0 1-.45 1-1s-.45-1-1-1z" fill="#ffffff" opacity="1" data-original="#000000" class=""></path></g></svg>