<svg id="Income_Statement" viewBox="0 0 64 64" xmlns="http://www.w3.org/2000/svg" data-name="Income Statement"><rect fill="#f1f2f2" height="60" rx="5" width="46" x="2" y="2"/><circle cx="47" cy="47" fill="#6b71f2" r="15"/><path d="m48 46.07v-4.97c1.7.29 3 1.27 3 2.41 0 .55.45 1 1 1s1-.45 1-1c0-2.27-2.13-4.09-5-4.44v-1.07c0-.55-.45-1-1-1s-1 .45-1 1v1.07c-2.87.35-5 2.17-5 4.44s2.13 4.09 5 4.44v4.97c-1.7-.29-3-1.27-3-2.41 0-.55-.45-1-1-1s-1 .45-1 1c0 2.27 2.13 4.09 5 4.44v1.06c0 .55.45 1 1 1s1-.45 1-1v-1.06c2.87-.35 5-2.17 5-4.44s-2.13-4.09-5-4.44zm-5-2.56c0-1.14 1.3-2.12 3-2.41v4.81c-1.7-.29-3-1.27-3-2.41zm5 9.41v-4.81c1.7.29 3 1.27 3 2.41s-1.3 2.12-3 2.41z" fill="#fff"/><path d="m16 14.07v-3.4c1.21.26 2 .96 2 1.61 0 .55.45 1 1 1s1-.45 1-1c0-1.83-1.69-3.31-4-3.65v-.63c0-.55-.45-1-1-1s-1 .45-1 1v.63c-2.31.34-4 1.82-4 3.65s1.69 3.31 4 3.65v3.41c-1.21-.26-2-.96-2-1.61 0-.55-.45-1-1-1s-1 .45-1 1c0 1.83 1.69 3.31 4 3.65v.63c0 .55.45 1 1 1s1-.45 1-1v-.63c2.31-.34 4-1.82 4-3.65s-1.69-3.31-4-3.65zm-4-1.8c0-.65.79-1.35 2-1.61v3.22c-1.21-.26-2-.96-2-1.61zm4 7.05v-3.22c1.21.26 2 .96 2 1.61s-.79 1.35-2 1.61z" fill="#0a0f26"/><g fill="#0ff2b2"><rect height="6" rx="1" width="6" x="10" y="26"/><rect height="8" rx="1" width="6" x="18" y="24"/><rect height="14" rx="1" width="6" x="26" y="18"/><rect height="22" rx="1" width="6" x="34" y="10"/></g><g fill="#0a0f26"><path d="m23 41h-12c-.55 0-1-.45-1-1s.45-1 1-1h12c.55 0 1 .45 1 1s-.45 1-1 1z"/><path d="m23 47h-12c-.55 0-1-.45-1-1s.45-1 1-1h12c.55 0 1 .45 1 1s-.45 1-1 1z"/><path d="m23 53h-12c-.55 0-1-.45-1-1s.45-1 1-1h12c.55 0 1 .45 1 1s-.45 1-1 1z"/></g></svg>