<svg xmlns="http://www.w3.org/2000/svg" version="1.1" xmlns:xlink="http://www.w3.org/1999/xlink" width="512" height="512" x="0" y="0" viewBox="0 0 512 512" style="enable-background:new 0 0 512 512" xml:space="preserve" class=""><g><path d="M30.082 390.832C13.495 390.832 0 377.337 0 360.75c0-16.587 13.495-30.082 30.082-30.082h451.836c16.587 0 30.082 13.495 30.082 30.082 0 16.587-13.495 30.081-30.082 30.081H30.082z" style="" fill="#ffffff" data-original="#b2f0fb" opacity="1"></path><path d="m31.085 272.203 28.4 28.401M31.085 300.604l28.4-28.401M50.163 193.486c182.27-466.216 240.234 200.799 65.518 285.347-71.789 34.739-39.908-184.064 106.954-230.988 34.076-10.888 67.557 18.658 57.482 51.992-.2.66-.413 1.321-.64 1.982 0 0 21.839-125.795 65.518-83.521l16.34 18.589c25.456 28.958 70.223 32.761 100.501 8.537h0" style="stroke-width:20;stroke-linecap:round;stroke-linejoin:round;stroke-miterlimit:10;" fill="none" stroke="#ffffff" stroke-width="20" stroke-linecap="round" stroke-linejoin="round" stroke-miterlimit="10" data-original="#020288" opacity="1" class=""></path></g></svg>