<svg xmlns="http://www.w3.org/2000/svg" version="1.1" xmlns:xlink="http://www.w3.org/1999/xlink" width="512" height="512" x="0" y="0" viewBox="0 0 511.995 511.995" style="enable-background:new 0 0 512 512" xml:space="preserve" class=""><g><circle cx="161.168" cy="291.809" r="96.833" style="stroke-width:15;stroke-linecap:round;stroke-linejoin:round;stroke-miterlimit:10;" fill="none" stroke="#ffffff" stroke-width="15" stroke-linecap="round" stroke-linejoin="round" stroke-miterlimit="10" data-original="#000000" class="" opacity="1"></circle><circle cx="161.168" cy="291.809" r="63.667" style="stroke-width:15;stroke-linecap:round;stroke-linejoin:round;stroke-miterlimit:10;" fill="none" stroke="#ffffff" stroke-width="15" stroke-linecap="round" stroke-linejoin="round" stroke-miterlimit="10" data-original="#000000" class="" opacity="1"></circle><path d="M92.696 360.28a97.102 97.102 0 0 1-13.39-16.719l-65.57 65.57c-8.315 8.315-8.315 21.795 0 30.109s21.795 8.315 30.109 0l65.57-65.57a97.102 97.102 0 0 1-16.719-13.39zM235.162 151.789h123.833M235.162 187.975h123.833M388.453 157.088l25.588 25.588 34.933-34.933M285.995 235.289h73M285.995 271.476h73M388.453 240.588l25.588 25.588 34.933-34.932M285.995 318.789h73M285.995 354.976h73M388.453 324.089l25.588 25.587 34.933-34.932M235.162 402.29h123.833M235.162 438.476h123.833M388.453 407.589l25.588 25.588 34.933-34.933M451.777 86.696h52.718L425.299 7.5v52.718c0 14.623 11.855 26.478 26.478 26.478z" style="stroke-width:15;stroke-linecap:round;stroke-linejoin:round;stroke-miterlimit:10;" fill="none" stroke="#ffffff" stroke-width="15" stroke-linecap="round" stroke-linejoin="round" stroke-miterlimit="10" data-original="#000000" class="" opacity="1"></path><path d="M314.578 86.696h189.917L425.299 7.5H197.733c-14.623 0-26.478 11.854-26.478 26.478v52.718h108.323" style="stroke-width:15;stroke-linecap:round;stroke-linejoin:round;stroke-miterlimit:10;" fill="none" stroke="#ffffff" stroke-width="15" stroke-linecap="round" stroke-linejoin="round" stroke-miterlimit="10" data-original="#000000" class="" opacity="1"></path><path d="M504.495 266.609V86.696L425.299 7.5H197.733c-14.623 0-26.478 11.854-26.478 26.478v161.537c21.32 2.22 42.045 11.484 58.383 27.822 37.816 37.816 37.816 99.127 0 136.943-16.338 16.338-37.063 25.601-58.383 27.822v89.915c0 14.623 11.854 26.478 26.478 26.478h280.284c14.623 0 26.478-11.854 26.478-26.478V301.609" style="stroke-width:15;stroke-linecap:round;stroke-linejoin:round;stroke-miterlimit:10;" fill="none" stroke="#ffffff" stroke-width="15" stroke-linecap="round" stroke-linejoin="round" stroke-miterlimit="10" data-original="#000000" class="" opacity="1"></path></g></svg>