<svg id="Capa_1" enable-background="new 0 0 512 512" height="512" viewBox="0 0 512 512" width="512" xmlns="http://www.w3.org/2000/svg"><g><path d="m506.375 75.962h-277.288v2.06l2.972 3.564-2.972 4.849v405.037l9.1 16.998 13.587 3.53h232.949c15.065 0 27.277-12.212 27.277-27.277v-403.136z" fill="#dbedff"/><path d="m232.059 484.723v-408.761h-54.143l-9.216 5.625v112.105l11.625 8.297v174.617l-11.625 15.487v92.63c0 15.065 12.212 27.277 27.277 27.277h63.36c-15.065 0-27.278-12.212-27.278-27.277z" fill="#b5dcff"/><path d="m432.035 6.424-1.622-6.424h-175.737l-10.651 2.303-9.272 7.727-5.666 12.877v55.115l2.972 3.565h225.631l1.19-8.716z" fill="#fbc700"/><path d="m232.059 27.277c0-15.065 12.213-27.277 27.277-27.277h-63.36c-15.064 0-27.276 12.212-27.276 27.277v54.309h63.36v-54.309z" fill="#eab900"/><path d="m457.69 81.587h54.31l-81.587-81.587v54.309c0 15.065 12.213 27.278 27.277 27.278z" fill="#ffe02f"/><g><path d="m362.107 156.371h-127.572c-4.267 0-7.726-3.459-7.726-7.726s3.459-7.726 7.726-7.726h127.572c4.267 0 7.726 3.459 7.726 7.726.001 4.267-3.458 7.726-7.726 7.726z" fill="#8bcaff"/></g><g><path d="m362.107 193.65h-127.572c-4.267 0-7.726-3.459-7.726-7.726s3.459-7.726 7.726-7.726h127.572c4.267 0 7.726 3.459 7.726 7.726s-3.458 7.726-7.726 7.726z" fill="#8bcaff"/></g><g><path d="m418.815 188.191c-2.049 0-4.015-.814-5.463-2.263l-26.36-26.36c-3.018-3.017-3.018-7.91 0-10.927 3.017-3.017 7.91-3.017 10.927 0l20.897 20.897 30.523-30.524c3.017-3.017 7.91-3.017 10.927 0 3.018 3.017 3.018 7.91 0 10.927l-35.987 35.987c-1.449 1.449-3.414 2.263-5.464 2.263z" fill="#8cc825"/></g><g><path d="m362.107 242.393h-75.204c-4.267 0-7.726-3.459-7.726-7.726s3.459-7.726 7.726-7.726h75.204c4.267 0 7.726 3.459 7.726 7.726.001 4.266-3.458 7.726-7.726 7.726z" fill="#8bcaff"/></g><g><path d="m362.107 279.672h-75.204c-4.267 0-7.726-3.459-7.726-7.726s3.459-7.726 7.726-7.726h75.204c4.267 0 7.726 3.459 7.726 7.726s-3.458 7.726-7.726 7.726z" fill="#8bcaff"/></g><g><path d="m418.815 274.212c-2.049 0-4.015-.814-5.463-2.263l-26.36-26.36c-3.018-3.017-3.018-7.91 0-10.927 3.017-3.017 7.91-3.017 10.927 0l20.897 20.897 30.523-30.524c3.017-3.017 7.91-3.017 10.927 0 3.018 3.017 3.018 7.91 0 10.927l-35.987 35.987c-1.449 1.45-3.414 2.263-5.464 2.263z" fill="#8cc825"/></g><g><path d="m362.107 328.414h-75.204c-4.267 0-7.726-3.459-7.726-7.726s3.459-7.726 7.726-7.726h75.204c4.267 0 7.726 3.459 7.726 7.726s-3.458 7.726-7.726 7.726z" fill="#8bcaff"/></g><g><path d="m362.107 365.693h-75.204c-4.267 0-7.726-3.459-7.726-7.726s3.459-7.726 7.726-7.726h75.204c4.267 0 7.726 3.459 7.726 7.726.001 4.267-3.458 7.726-7.726 7.726z" fill="#8bcaff"/></g><g><path d="m418.815 360.233c-1.977 0-3.955-.755-5.463-2.263l-26.36-26.36c-3.018-3.017-3.018-7.91 0-10.927 3.017-3.017 7.91-3.017 10.927 0l20.897 20.897 30.523-30.523c3.017-3.017 7.91-3.017 10.927 0 3.018 3.017 3.018 7.91 0 10.927l-35.987 35.987c-1.509 1.508-3.486 2.262-5.464 2.262z" fill="#8cc825"/></g><g><path d="m362.107 414.435h-127.572c-4.267 0-7.726-3.459-7.726-7.726s3.459-7.726 7.726-7.726h127.572c4.267 0 7.726 3.459 7.726 7.726s-3.458 7.726-7.726 7.726z" fill="#8bcaff"/></g><g><path d="m362.107 451.714h-127.572c-4.267 0-7.726-3.459-7.726-7.726s3.459-7.726 7.726-7.726h127.572c4.267 0 7.726 3.459 7.726 7.726s-3.458 7.726-7.726 7.726z" fill="#8bcaff"/></g><g><path d="m418.815 446.255c-2.049 0-4.015-.814-5.463-2.263l-26.36-26.36c-3.018-3.017-3.018-7.91 0-10.927 3.017-3.017 7.91-3.017 10.927 0l20.897 20.897 30.523-30.524c3.017-3.017 7.91-3.017 10.927 0 3.018 3.017 3.018 7.91 0 10.927l-35.987 35.987c-1.449 1.449-3.414 2.263-5.464 2.263z" fill="#8cc825"/></g><path d="m80.653 346.207h-6.68l-67.549 67.55c-8.566 8.566-8.566 22.453 0 31.018 8.565 8.566 22.453 8.566 31.018 0l67.55-67.55v-7.831z" fill="#ff72c7"/><path d="m228.846 222.353c-9.27-9.271-19.921-16.308-31.281-21.167h-5.651l-18.801 9.172-12.62 12.749 1.124 4.283-7.176 3.315-22.535 33.514v48.742l16.827 33.246 9.575 9.967 3.31 2.22v2.93l12.955 12.963 15.024 9.787 7.969.523c11.36-4.858 22.01-11.896 31.281-21.167 38.956-38.957 38.956-102.119-.001-141.077z" fill="#b166db"/><path d="m166.285 363.431c-38.957-38.958-38.957-102.12 0-141.077 9.271-9.271 19.921-16.308 31.281-21.167-36.376-15.558-80.11-8.52-109.797 21.167-38.957 38.957-38.957 102.12 0 141.077 29.687 29.687 73.421 36.724 109.797 21.167-11.36-4.859-22.011-11.896-31.281-21.167z" fill="#9956be"/><path d="m204.685 246.514c-11.965-11.965-27.402-18.337-43.068-19.124l-7.176 3.315-22.535 33.514v48.742l16.827 33.246 9.575 9.967 3.31 2.22c15.666-.787 31.103-7.159 43.068-19.124 25.614-25.613 25.614-67.142-.001-92.756z" fill="#dbedff"/><path d="m161.617 227.39c-17.871-.898-36.039 5.474-49.689 19.124-25.614 25.614-25.614 67.143 0 92.757 13.649 13.649 31.817 20.021 49.689 19.124-32.7-37.474-32.7-93.532 0-131.005z" fill="#b5dcff"/></g></svg>