<svg id="Capa_1" enable-background="new 0 0 512 512" height="512" viewBox="0 0 512 512" width="512" xmlns="http://www.w3.org/2000/svg"><g><path d="m135.164 338.458c-6.744-2.248-11.293-8.56-11.293-15.668v-1.201h-38.701l-28.943 33.285 44.959 32.579 44.326-45.546z" fill="#ffd18d"/><path d="m74.323 276.887v45.902c0 7.109-4.549 13.42-11.293 15.669l-2.471.824 7.699 14.844c9.936-3.313 17.409-11.017 20.674-20.524 1.483-4.32 5.511-7.173 10.078-7.165h.087c8.768 0 17.118-1.746 24.774-4.847v-44.701h-49.548z" fill="#fbbd80"/><path d="m143.14 341.116-30.753 20.502c-5.548 3.698-12.775 3.698-18.323 0l-17.484-11.656-46.635 6.431c-13.487 4.497-22.585 17.119-22.585 31.336v25.741l9.157 18.91c2.583.913 5.362 1.409 8.257 1.409h8.258l8.316-5.885 8.2 5.885h90.839l35.221-81.851z" fill="#4bc3ef"/><path d="m41.29 392.5c-4.565 0-8.258 3.698-8.258 8.258v33.032h16.516v-33.032c0-4.561-3.693-8.258-8.258-8.258z" fill="#1badde"/><path d="m68.258 354.125c3.015-1.006 5.81-2.421 8.323-4.162l-16.022-10.681-37.973 12.658c-13.488 4.495-22.586 17.117-22.586 31.335v25.741c0 10.771 6.916 19.955 16.516 23.367v-49.109c0-7.121 4.54-13.415 11.298-15.665z" fill="#1badde"/><path d="m448.97 338.458c-6.744-2.248-11.293-8.56-11.293-15.668v-1.201l-35.461-5.375-24.977 48.651 73.303 18.57 6.405-42.318z" fill="#d48c64"/><path d="m388.129 276.887v45.902c0 7.109-4.549 13.42-11.293 15.669l5.229 15.667c9.936-3.313 17.409-11.017 20.674-20.525 1.483-4.32 5.511-7.173 10.078-7.165h.087c8.768 0 17.118-1.746 24.774-4.847v-44.701z" fill="#c6805d"/><path d="m489.414 351.939-32.467-10.823-30.753 20.502c-5.548 3.698-12.775 3.698-18.323 0l-33.505-22.337-37.973 12.658 35.221 81.851h90.839l7.964-12.238 8.552 12.238h8.258c13.682 0 24.774-11.092 24.774-24.774v-25.74c-.001-14.218-9.099-26.841-22.587-31.337z" fill="#ffd05b"/><path d="m372.678 210.822v37.626c0 27.365 12.86 60.869 40.225 60.869 2.841 0 8.337-.096 8.337-.096 23.395-3.964 41.211-24.326 41.211-48.85v-49.548h-89.773z" fill="#e29a6c"/><path d="m412.903 309.919c2.82 0 5.646-.246 8.337-.698-23.425-3.939-41.369-24.305-41.369-48.85v-2.977c0-4.399 1.742-8.603 4.862-11.703 8.866-8.811 26.751-26.61 26.751-26.61l-8.258-8.258h-39.871v49.548c0 27.365 22.183 49.548 49.548 49.548z" fill="#d48c64"/><path d="m306.822 303.337c-5.897-4.604-9.532-11.75-9.532-19.532v-8.656h-73.499l-13.357 64.629 76.887.977z" fill="#e29a6c"/><path d="m256 326.435-57.806 33.033 33.032 74.322 24.493-18.102 25.055 18.102 33.032-74.322z" fill="#dbd8db"/><path d="m264.671 326.435h-17.342l-16.103 107.355h49.548s-8.776-58.508-16.103-107.355z" fill="#77cc7d"/><path d="m264.258 351.21h-16.516c-4.561 0-8.258-3.697-8.258-8.258v-16.516h33.032v16.516c0 4.56-3.697 8.258-8.258 8.258z" fill="#52bd7e"/><path d="m214.71 243.855v39.95c0 7.785-3.637 14.932-9.536 19.536l6.536 15.55c8.915-5.52 15.368-14.238 18.08-24.335.73-2.716 2.225-5.164 4.365-6.989 2.934-2.502 6.786-3.65 10.61-3.154 3.679.477 7.426.732 11.236.732 14.885 0 28.892-3.65 41.29-9.996v-31.294z" fill="#d48c64"/><path d="m226.987 350.779 29.013-24.344-50.827-23.095.938 38.029c.274 10.641 12.722 16.252 20.876 9.41z" fill="#eceaec"/><path d="m256 326.435 29.013 24.344c8.153 6.841 20.601 1.23 20.875-9.409l.934-38.033z" fill="#eceaec"/><path d="m470.71 392.5c-4.565 0-8.258 3.698-8.258 8.258v33.032h16.516v-33.032c0-4.561-3.694-8.258-8.258-8.258z" fill="#ffc244"/><path d="m264.258 95.209h-16.516c-15.623 0-29.98 5.421-41.29 14.487l-11.33 51.577v24.405c0 41.047 19.831 81.937 60.878 81.937l12.376-.012c35.156-5.893 61.946-36.466 61.946-73.297v-33.032c.001-36.486-29.577-66.065-66.064-66.065z" fill="#f4aa73"/><path d="m437.677 186.048h-49.548c-7.592 0-14.586 2.561-20.164 6.867l-6.798 26.166h26.962c23.849 17.887 56.307 27.164 72.511 30.94 5.177 1.207 10.069-2.747 10.069-8.063v-22.877c.001-18.244-14.788-33.033-33.032-33.033z" fill="#615260"/><path d="m206.452 194.306v-84.61c-15.09 12.108-24.774 30.725-24.774 51.577v33.032c0 41.047 33.275 74.323 74.323 74.323 4.23 0 8.34-.347 12.376-1.026-35.139-5.907-61.925-36.478-61.925-73.296z" fill="#e29a6c"/><path d="m175.07 328.187-28.491 3.772c-13.488 4.496-22.587 17.119-22.587 31.337v37.202l8.137 31.885c2.583.913 5.363 1.407 8.258 1.407h57.806z" fill="#615260"/><path d="m178.25 331.223-3.179-16.349h-.001l-36.87 12.29c-13.488 4.496-22.587 17.119-22.587 31.337v50.514c0 10.771 6.916 19.955 16.516 23.367v-73.882c0-7.121 4.54-13.415 11.298-15.665z" fill="#4e3d4d"/><path d="m208.616 320.578-25.766 2.693-18.226 12.495-4.028 8.057c-2.325 4.65-2.325 10.123 0 14.773l37.597 75.194h33.032z" fill="#736572"/><path d="m164.624 335.767 38.359-12.791c1.952-.65 3.838-1.49 5.632-2.397l-3.443-17.238c-2.178 1.697-4.679 3.059-7.404 3.967l-22.699 7.567z" fill="#615260"/><path d="m336.93 314.874 36.87 12.29c13.488 4.496 22.587 17.119 22.587 31.337v50.514c0 13.682-11.092 24.774-24.774 24.774h-57.806l23.122-118.916h.001z" fill="#615260"/><path d="m306.822 303.337c2.178 1.697 4.683 3.062 7.408 3.971l22.699 7.567 14.475 28.949c2.325 4.65 2.325 10.123 0 14.773l-37.597 75.194h-33.032z" fill="#736572"/><path d="m355.097 219.081v13.095c0 7.357 8.895 11.042 14.097 5.84l18.935-18.935c-8.905-8.905-15.414-17.907-20.165-26.165-7.814 6.04-12.867 15.523-12.867 26.165z" fill="#4e3d4d"/><path d="m428.27 105.006-35.341-25.243c-5.466-3.904-13.058.003-13.058 6.72v8.727h-24.774c-4.561 0-8.258 3.697-8.258 8.258v15.098h33.032l16.516 22.653 31.883-22.773c4.611-3.294 4.611-10.147 0-13.44z" fill="#4bc3ef"/><path d="m355.097 95.21h-8.258c-4.561 0-8.258 3.697-8.258 8.258v16.516c0 4.561 3.697 8.258 8.258 8.258h33.032v8.727c0 6.717 7.592 10.624 13.058 6.72l3.458-2.47v-12.977c0-9.122-7.395-16.516-16.516-16.516h-8.258c-9.122 0-16.516-7.395-16.516-16.516z" fill="#1badde"/><path d="m165.161 95.21h-33.032v-8.727c0-6.717-7.592-10.624-13.058-6.72l-28.815 20.582 10.06 19.657h64.845c4.561 0 8.258-3.697 8.258-8.258v-8.276c0-4.561-3.697-8.258-8.258-8.258z" fill="#ffd05b"/><path d="m99.033 106.196-8.777-5.851-6.526 4.661c-4.611 3.293-4.611 10.146 0 13.439l35.341 25.244c5.466 3.904 13.058-.003 13.058-6.72v-8.727h33.032c4.561 0 8.258-3.697 8.258-8.258v-8.24h-56.063c-6.521 0-12.897-1.93-18.323-5.548z" fill="#ffc244"/><path d="m58.871 210.822v37.626c0 27.365 12.86 60.869 40.225 60.869 2.841 0 8.337-.096 8.337-.096 23.395-3.964 41.211-24.326 41.211-48.85v-49.548h-89.773z" fill="#ffe09c"/><path d="m99.097 309.919c2.82 0 5.646-.246 8.337-.698-23.425-3.939-41.369-24.305-41.369-48.85v-2.977c0-4.399 1.742-8.603 4.862-11.703 8.866-8.811 26.751-26.61 26.751-26.61l-8.258-8.258h-39.872v49.548c0 27.365 22.184 49.548 49.549 49.548z" fill="#ffd18d"/><path d="m123.871 186.048h-49.548c-7.592 0-14.586 2.561-20.164 6.867l-6.798 26.166h26.962c23.849 17.887 56.307 27.164 72.511 30.94 5.177 1.207 10.069-2.747 10.069-8.063v-22.877c0-18.244-14.789-33.033-33.032-33.033z" fill="#e29a6c"/><path d="m41.29 219.081v13.095c0 7.357 8.895 11.042 14.097 5.84l18.935-18.935c-8.905-8.905-15.414-17.907-20.165-26.165-7.813 6.04-12.867 15.523-12.867 26.165z" fill="#d48c64"/></g></svg>