<svg id="Layer_1" height="512" viewBox="0 0 64 64" width="512" xmlns="http://www.w3.org/2000/svg" data-name="Layer 1"><path d="m19.8 30h-1.8v-7c0-.55-.45-1-1-1h-1v-7c0-.55-.45-1-1-1h-1l-2.81-11.22c-.05-.2-.34-.2-.39 0l-2.81 11.22h-1c-.55 0-1 .45-1 1v7h-1c-.55 0-1 .45-1 1v7h-1.8c-.11 0-.2.09-.2.2v31.6c0 .11.09.2.2.2h17.61c.11 0 .2-.09.2-.2v-31.6c0-.11-.09-.2-.2-.2z" fill="#3c5380"/><g fill="#f2f6ff"><path d="m7 62v-6c0-1.1.9-2 2-2h4c1.1 0 2 .9 2 2v6s-8 0-8 0z"/><rect height="3" rx="1.5" width="10" x="6" y="35.5"/><rect height="3" rx="1.5" width="10" x="6" y="43.5"/></g><circle cx="54" cy="10" fill="#23468c" r="8"/><circle cx="54" cy="10" fill="#f7f9ff" r="6"/><circle cx="54" cy="32" fill="#23468c" r="8"/><circle cx="54" cy="32" fill="#f7f9ff" r="6"/><circle cx="54" cy="54" fill="#23468c" r="8"/><circle cx="54" cy="54" fill="#f7f9ff" r="6"/><path d="m19.8 30h-12.8v-7c0-.55.45-1 1-1h1v-7c0-.55.45-1 1-1h1l1.5-6-1.31-5.22c-.05-.2-.34-.2-.39 0l-2.81 11.22h-1c-.55 0-1 .45-1 1v7h-1c-.55 0-1 .45-1 1v7h-1.8c-.11 0-.2.09-.2.2v31.6c0 .11.09.2.2.2h2.8v-28c0-.55.45-1 1-1h14v-2.8c0-.11-.09-.2-.2-.2z" fill="#364a73"/><path d="m41 55h-10v-2h10c.55 0 1 .45 1 1 0 .55-.45 1-1 1z" fill="#23468c"/><path d="m41 33h-10v-2h10c.55 0 1 .45 1 1 0 .55-.45 1-1 1z" fill="#23468c"/><path d="m41 11h-10v-2h10c.55 0 1 .45 1 1 0 .55-.45 1-1 1z" fill="#23468c"/><path d="m54.18 5.86 1.07 2.18c.03.06.09.1.15.11l2.4.35c.16.02.23.23.11.34l-1.74 1.69s-.07.11-.06.18l.41 2.39c.03.16-.14.29-.29.21l-2.15-1.13c-.06-.03-.13-.03-.19 0l-2.15 1.13c-.15.08-.32-.05-.29-.21l.41-2.39c.01-.06-.01-.13-.06-.18l-1.74-1.69c-.12-.12-.05-.32.11-.34l2.4-.35c.07 0 .12-.05.15-.11l1.07-2.18c.07-.15.29-.15.36 0z" fill="#00af49"/><rect fill="#f2bf30" height="6" rx=".2" width="6" x="51" y="29"/><path d="m57.18 57h-6.35c-.15 0-.25-.16-.18-.29l3.18-6.35c.07-.15.28-.15.36 0l3.18 6.35c.07.13-.03.29-.18.29z" fill="#e35544"/><circle cx="29" cy="32" fill="#f2bf30" r="3.5"/><circle cx="29" cy="10" fill="#00af49" r="3.5"/><circle cx="29" cy="54" fill="#e35544" r="3.5"/></svg>