<svg xmlns="http://www.w3.org/2000/svg" version="1.1" xmlns:xlink="http://www.w3.org/1999/xlink" width="512" height="512" x="0" y="0" viewBox="0 0 64 64" style="enable-background:new 0 0 512 512" xml:space="preserve" class=""><g><path d="M54 1c-4.96 0-9 4.04-9 9s4.04 9 9 9 9-4.04 9-9-4.04-9-9-9zm0 16c-3.86 0-7-3.14-7-7s3.14-7 7-7 7 3.14 7 7-3.14 7-7 7zM54 23c-4.96 0-9 4.04-9 9s4.04 9 9 9 9-4.04 9-9-4.04-9-9-9zm0 16c-3.86 0-7-3.14-7-7s3.14-7 7-7 7 3.14 7 7-3.14 7-7 7zM54 45c-4.96 0-9 4.04-9 9s4.04 9 9 9 9-4.04 9-9-4.04-9-9-9zm0 16c-3.86 0-7-3.14-7-7s3.14-7 7-7 7 3.14 7 7-3.14 7-7 7zM2 63h18c.55 0 1-.45 1-1V30c0-.55-.45-1-1-1h-1v-6c0-1.1-.9-2-2-2v-6c0-1.1-.9-2-2-2h-.22L11.97 1.76C11.86 1.32 11.46 1 11 1s-.86.31-.97.76L7.22 13H7c-1.1 0-2 .9-2 2v6c-1.1 0-2 .9-2 2v6H2c-.55 0-1 .45-1 1v32c0 .55.45 1 1 1zm12-2H8v-5c0-.55.45-1 1-1h4c.55 0 1 .45 1 1zM11 6.12 12.72 13H9.28zM7 15h8v6H7zm-2 8h12v6H5zm-2 8h16v30h-3v-5c0-1.65-1.35-3-3-3H9c-1.65 0-3 1.35-3 3v5H3zM28 36c1.86 0 3.41-1.28 3.86-3H42v-2H31.86c-.45-1.72-2-3-3.86-3-2.21 0-4 1.79-4 4s1.79 4 4 4zm0-6c1.1 0 2 .9 2 2s-.9 2-2 2-2-.9-2-2 .9-2 2-2zM28 6c-2.21 0-4 1.79-4 4s1.79 4 4 4c1.86 0 3.41-1.28 3.86-3H42V9H31.86c-.45-1.72-2-3-3.86-3zm0 6c-1.1 0-2-.9-2-2s.9-2 2-2 2 .9 2 2-.9 2-2 2zM28 58c1.86 0 3.41-1.28 3.86-3H42v-2H31.86c-.45-1.72-2-3-3.86-3-2.21 0-4 1.79-4 4s1.79 4 4 4zm0-6c1.1 0 2 .9 2 2s-.9 2-2 2-2-.9-2-2 .9-2 2-2z" fill="#ffffff" opacity="1" data-original="#000000" class=""></path><path d="M8 40h6c1.65 0 3-1.35 3-3s-1.35-3-3-3H8c-1.65 0-3 1.35-3 3s1.35 3 3 3zm0-4h6c.55 0 1 .45 1 1s-.45 1-1 1H8c-.55 0-1-.45-1-1s.45-1 1-1zM8 48h6c1.65 0 3-1.35 3-3s-1.35-3-3-3H8c-1.65 0-3 1.35-3 3s1.35 3 3 3zm0-4h6c.55 0 1 .45 1 1s-.45 1-1 1H8c-.55 0-1-.45-1-1s.45-1 1-1zM58.35 7.57l-2.39-.35-1.07-2.16c-.34-.68-1.46-.68-1.79 0l-1.07 2.16-2.39.35c-.38.05-.69.32-.81.68s-.02.76.25 1.03l1.73 1.68-.41 2.38c-.06.38.09.75.4.98.31.22.72.25 1.05.08l2.13-1.12 2.13 1.12c.15.08.31.11.47.11a1.002 1.002 0 0 0 .99-1.17l-.41-2.38 1.73-1.68a1.006 1.006 0 0 0-.56-1.71zm-2.94 2.32c-.24.23-.34.56-.29.89l.15.9-.81-.42c-.15-.08-.31-.11-.47-.11s-.32.04-.47.11l-.81.42.15-.9a.991.991 0 0 0-.29-.89l-.65-.64.9-.13c.33-.05.61-.25.75-.55l.4-.82.4.82c.15.3.43.5.75.55l.9.13-.65.64zM57 28h-6c-.55 0-1 .45-1 1v6c0 .55.45 1 1 1h6c.55 0 1-.45 1-1v-6c0-.55-.45-1-1-1zm-1 6h-4v-4h4zM54.89 49.55c-.34-.68-1.45-.68-1.79 0l-3.5 7c-.15.31-.14.68.04.97s.5.47.85.47h7c.35 0 .67-.18.85-.47s.2-.66.04-.97l-3.5-7zM52.11 56l1.88-3.76L55.87 56z" fill="#ffffff" opacity="1" data-original="#000000" class=""></path></g></svg>